<svg xmlns="http://www.w3.org/2000/svg" viewBox="0 0 48 48"><path fill="#e91e63" d="M24,4v20L14,6.681L24,4z"></path><path fill="#ff5722" d="M34,6.681L41.319,14L24,24L34,6.681z"></path><path fill="#f44336" d="M24,4l10,2.681L24,24V4z"></path><path fill="#8bc34a" d="M24,44V24l10,17.319L24,44z"></path><path fill="#03a9f4" d="M14,41.319L6.681,34L24,24L14,41.319z"></path><path fill="#4caf50" d="M24,44l-10-2.681L24,24V44z"></path><path fill="#ff9800" d="M44,24H24l17.319-10L44,24z"></path><path fill="#ffeb3b" d="M41.319,34L34,41.319L24,24L41.319,34z"></path><path fill="#ffc107" d="M44,24l-2.681,10L24,24H44z"></path><path fill="#3f51b5" d="M4,24h20L6.681,34L4,24z"></path><path fill="#9c27b0" d="M6.681,14L14,6.681L24,24L6.681,14z"></path><path fill="#673ab7" d="M4,24l2.681-10L24,24H4z"></path></svg>
