<svg xmlns="http://www.w3.org/2000/svg" width="48" height="48" viewBox="0 0 48 48"><path fill="#2196F3" d="M22 35H26V41H22z"></path><path fill="#2196F3" d="M35 44L13 44 13 42 22 39 26 39 35 42z"></path><path fill="#BBDEFB" d="M24.002,36L24.002,36C15.178,35.999,8,28.821,8,20c0-8.822,7.178-16,16-16s16,7.178,16,16C40,28.821,32.823,35.999,24.002,36z"></path><path fill="#2196F3" d="M35.313,25.657c0.392,0.391,0.392,1.023,0,1.414c0,0-5.656,7.071-8.485,2.828l-3.535-7.778l-0.707-0.707c-1.414-2.828-9.899-7.071-9.899-7.071c-0.392-0.391-0.392-1.023,0-1.414c0,0,5.656-7.071,8.485-2.828l3.535,7.778l0.707,0.707C26.828,21.414,35.313,25.657,35.313,25.657z"></path><path fill="#2196F3" d="M29.657,8.687c0.391-0.391,1.022-0.391,1.414,0c0,0,7.071,5.656,2.828,8.485l-7.778,3.535l-0.707,0.707c-2.828,1.414-7.071,9.899-7.071,9.899c-0.391,0.391-1.023,0.391-1.414,0c0,0-7.071-5.656-2.828-8.485l7.778-3.535l0.707-0.707C25.414,17.172,29.657,8.687,29.657,8.687z"></path><path fill="#3F51B5" d="M24,23L24,23c-1.654,0-3-1.346-3-3s1.346-3,3-3s3,1.346,3,3S25.654,23,24,23z"></path></svg>
