<svg xmlns="http://www.w3.org/2000/svg" width="48" height="48" viewBox="0 0 48 48"><path fill="#7E57C2" d="M43 11H5c-1.103 0-2 .897-2 2s.897 2 2 2h38c1.104 0 2-.897 2-2S44.104 11 43 11zM43 33H5c-1.103 0-2 .897-2 2s.897 2 2 2h38c1.104 0 2-.897 2-2S44.104 33 43 33z"></path><path fill="#D1C4E9" d="M37.027 9v30.014c0 1.645 2.973 2.985 2.973 2.985V6.001C40 6.001 37.027 7.355 37.027 9zM29 9v30.014c0 1.645 2.973 2.985 2.973 2.985V6.001C31.973 6.001 29 7.355 29 9zM21.027 9v30.014c0 1.645 2.973 2.985 2.973 2.985V6.001C24 6.001 21.027 7.355 21.027 9zM13.027 9v30.014c0 1.645 2.973 2.985 2.973 2.985V6.001C16 6.001 13.027 7.355 13.027 9zM5.027 9v30.014C5.027 40.658 8 41.999 8 41.999V6.001C8 6.001 5.027 7.355 5.027 9z"></path><g><path fill="#B39DDB" d="M43 39.014V9c0-1.649-2.986-3-2.986-3L40 6.001v35.998L40.014 42C40.014 42 43 40.663 43 39.014zM34.973 39.014V9c0-1.649-2.986-3-2.986-3l-.014.001v35.998L31.986 42C31.986 42 34.973 40.663 34.973 39.014zM27 39.014V9c0-1.649-2.986-3-2.986-3L24 6.001v35.998L24.014 42C24.014 42 27 40.663 27 39.014zM19 39.014V9c0-1.649-2.986-3-2.986-3L16 6.001v35.998L16.014 42C16.014 42 19 40.663 19 39.014zM11 39.014V9c0-1.649-2.986-3-2.986-3L8 6.001v35.998L8.014 42C8.014 42 11 40.663 11 39.014z"></path></g></svg>
