<svg xmlns="http://www.w3.org/2000/svg" width="48" height="48" viewBox="0 0 48 48"><path fill="#546E7A" d="M35.36,33.977l3.616-3.054l-1.932-3.503l-4.802,1.52L31.255,24h-4l-0.994,4.973l-4.846-1.494l-1.905,3.518l3.639,3.027l-3.616,3.054l1.932,3.503l4.803-1.521L27.255,44h4l0.994-4.972l4.846,1.493L39,37.004L35.36,33.977z M29.255,39c-2.762,0-5-2.238-5-5s2.238-5,5-5s5,2.238,5,5S32.017,39,29.255,39z"></path><path fill="#90A4AE" d="M29.255,26.5c-4.142,0-7.5,3.358-7.5,7.5s3.358,7.5,7.5,7.5s7.5-3.358,7.5-7.5S33.396,26.5,29.255,26.5z M29.255,38c-2.209,0-4-1.792-4-4c0-2.209,1.791-4,4-4s4,1.791,4,4C33.255,36.208,31.464,38,29.255,38z"></path><path fill="#F44336" d="M31 13.483L32.743 4 42 7.343zM18 13.483L19.743 4 29 7.343z"></path><path fill="#F44336" d="M22.628 13.248c.852 1.703.733 3.049-.118 4.752l-1.619 3.211L24.469 23l1.619-3.211c1.42-2.84 1.538-5.49.108-8.349L23.78 7.174c-.505-.982-1.709-1.374-2.692-.866C20.104 6.813 19.717 8.018 20.222 9L22.628 13.248zM35.628 13.248c.852 1.703.733 3.049-.118 4.752l-1.619 3.211L37.469 23l1.619-3.211c1.42-2.84 1.538-5.49.108-8.349L36.78 7.174c-.505-.982-1.709-1.374-2.692-.866C33.104 6.813 32.717 8.018 33.222 9L35.628 13.248zM5 13.483L6.743 4 16 7.343z"></path><path fill="#F44336" d="M6.737,42.123l2.623-4.406c0.828-1.659,1.086-2.675,0.234-4.377l-1.688-3.748c-1.421-2.84-1.42-6.098,0.001-8.938l1.569-3.138c0.851-1.703,0.969-3.049,0.118-4.753L7.306,8.517C6.802,7.534,7.189,6.328,8.172,5.824c0.983-0.508,2.188-0.116,2.692,0.866l2.299,4.267c1.429,2.859,1.311,5.508-0.108,8.348l-1.57,3.14c-0.853,1.702-0.853,3.655,0,5.358l1.688,3.748c1.419,2.839,1.161,5.157-0.258,7.998L10.269,44L6.737,42.123z"></path></svg>
