<svg xmlns="http://www.w3.org/2000/svg" width="48" height="48" viewBox="0 0 48 48"><path fill="#F44336" d="M5 13.483L6.743 4 16 7.343z"></path><path fill="#F44336" d="M6.737 42.123l2.623-4.406c.828-1.659 1.086-2.675.234-4.377l-1.688-3.748c-1.421-2.84-1.42-6.098.001-8.938l1.569-3.138c.851-1.703.969-3.049.118-4.753L7.306 8.517C6.802 7.534 7.189 6.328 8.172 5.824c.983-.508 2.188-.116 2.692.866l2.299 4.267c1.429 2.859 1.311 5.508-.108 8.348l-1.57 3.14c-.853 1.702-.853 3.655 0 5.358l1.688 3.748c1.419 2.839 1.161 5.157-.258 7.998L10.269 44 6.737 42.123zM18 13.483L19.743 4 29 7.343z"></path><path fill="#F44336" d="M19.737 42.123l2.623-4.406c.828-1.659 1.086-2.675.234-4.377l-1.688-3.748c-1.421-2.84-1.42-6.098.001-8.938l1.569-3.138c.851-1.703.969-3.049.118-4.753l-2.289-4.247c-.504-.982-.116-2.188.866-2.692.983-.508 2.188-.116 2.692.866l2.299 4.267c1.429 2.859 1.311 5.508-.108 8.348l-1.57 3.14c-.853 1.702-.853 3.655 0 5.358l1.688 3.748c1.419 2.839 1.161 5.157-.258 7.998L23.269 44 19.737 42.123zM31 13.483L32.743 4 42 7.343z"></path><path fill="#F44336" d="M32.737,42.123l2.623-4.406c0.828-1.659,1.086-2.675,0.234-4.377l-1.688-3.748c-1.421-2.84-1.42-6.098,0.001-8.938l1.569-3.138c0.851-1.703,0.969-3.049,0.118-4.753l-2.289-4.247c-0.504-0.982-0.116-2.188,0.866-2.692c0.983-0.508,2.188-0.116,2.692,0.866l2.299,4.267c1.429,2.859,1.311,5.508-0.108,8.348l-1.57,3.14c-0.853,1.702-0.853,3.655,0,5.358l1.688,3.748c1.419,2.839,1.161,5.157-0.258,7.998L36.269,44L32.737,42.123z"></path></svg>
