<svg version="1.1" xmlns="http://www.w3.org/2000/svg" xmlns:xlink="http://www.w3.org/1999/xlink" viewBox="0 0 226 226"><g fill="none" fill-rule="nonzero" stroke="none" stroke-width="1" stroke-linecap="butt" stroke-linejoin="miter" stroke-miterlimit="10" stroke-dasharray="" stroke-dashoffset="0" font-family="none" font-weight="none" font-size="none" text-anchor="none" style="mix-blend-mode: normal"><path d="M0,226v-226h226v226z" fill="none"></path><g><path d="M84.75,137.0125c0,-0.47083 0,-0.47083 0,0v-52.2625h-37.66667v51.79167c0,0 0,0 0,0.47083c-11.3,6.59167 -18.83333,18.83333 -18.83333,32.4875c0,20.71667 16.95,37.66667 37.66667,37.66667c20.71667,0 37.66667,-16.95 37.66667,-37.66667c0,-14.125 -7.53333,-25.89583 -18.83333,-32.4875z" fill="#2196f3"></path><path d="M84.75,84.75v-47.08333c0,-10.35833 -8.475,-18.83333 -18.83333,-18.83333c-10.35833,0 -18.83333,8.475 -18.83333,18.83333v47.08333z" fill="#cfd8dc"></path><path d="M143.60417,136.54167c-8.94583,0 -16.47917,-7.53333 -16.47917,-16.47917c0,-8.94583 16.47917,-30.60417 16.47917,-30.60417c0,0 16.47917,21.65833 16.47917,30.60417c0,8.94583 -7.53333,16.47917 -16.47917,16.47917zM197.75,68.27083c0,-8.94583 -16.47917,-30.60417 -16.47917,-30.60417c0,0 -16.47917,21.65833 -16.47917,30.60417c0,8.94583 7.53333,16.47917 16.47917,16.47917c8.94583,0 16.47917,-7.53333 16.47917,-16.47917zM197.75,171.85417c0,-8.94583 -16.47917,-30.60417 -16.47917,-30.60417c0,0 -16.47917,21.65833 -16.47917,30.60417c0,8.94583 7.53333,16.47917 16.47917,16.47917c8.94583,0 16.47917,-7.53333 16.47917,-16.47917z" fill="#64b5f6"></path><path d="M84.75,75.33333h-18.83333v-9.41667h18.83333zM84.75,47.08333h-18.83333v9.41667h18.83333z" fill="#90a4ae"></path><path d="M84.75,94.16667h-18.83333v-9.41667h18.83333zM84.75,122.41667h-18.83333v9.41667h18.83333zM84.75,103.58333h-18.83333v9.41667h18.83333z" fill="#0d47a1"></path></g></g></svg>