<svg version="1.1" xmlns="http://www.w3.org/2000/svg" xmlns:xlink="http://www.w3.org/1999/xlink" viewBox="0 0 226 226"><g fill="none" fill-rule="nonzero" stroke="none" stroke-width="1" stroke-linecap="butt" stroke-linejoin="miter" stroke-miterlimit="10" stroke-dasharray="" stroke-dashoffset="0" font-family="none" font-weight="none" font-size="none" text-anchor="none" style="mix-blend-mode: normal"><path d="M0,226v-226h226v226z" fill="none"></path><g><path d="M188.33333,80.04167h9.41667v113h-9.41667z" fill="#b0bec5"></path><path d="M169.5,183.625h23.54167v9.41667h-23.54167zM169.5,108.29167h23.54167v9.41667h-23.54167zM178.91667,89.45833h14.125v9.41667h-14.125zM178.91667,164.79167h14.125v9.41667h-14.125zM178.91667,145.95833h14.125v9.41667h-14.125zM178.91667,127.125h14.125v9.41667h-14.125z" fill="#b0bec5"></path><path d="M141.25,141.25c0,-31.20212 -56.5,-113 -56.5,-113c0,0 -56.5,81.79788 -56.5,113c0,31.20212 25.29788,56.5 56.5,56.5c31.20212,0 56.5,-25.29788 56.5,-56.5z" fill="#bbdefb"></path><path d="M129.25787,103.58333c0,0 -16.25787,14.125 -44.50787,0c-28.25,-14.125 -44.50787,0 -44.50787,0c-6.99187,14.69942 -11.99213,28.41479 -11.99213,37.66667c0,31.20212 25.29788,56.5 56.5,56.5c31.20212,0 56.5,-25.29788 56.5,-56.5c0,-9.25188 -5.00025,-22.96725 -11.99213,-37.66667z" fill="#2196f3"></path><g fill="#ff3d00"><path d="M169.5,32.95833h23.54167v9.41667h-23.54167zM178.91667,70.625h14.125v9.41667h-14.125zM178.91667,51.79167h14.125v9.41667h-14.125z"></path><path d="M188.33333,32.95833h9.41667v47.08333h-9.41667z"></path></g></g></g></svg>