<svg xmlns="http://www.w3.org/2000/svg" width="48" height="48" viewBox="0 0 48 48"><path fill="#FBC02D" d="M22,27v11c0,2.209,1.791,4,4,4s4-1.791,4-4V27H22z"></path><path fill="#546E7A" d="M27,25h-2V15c0-2.823-2.504-2.994-3.006-3H8v-2h14c1.729,0,5,1.045,5,5V25z"></path><path fill="#546E7A" d="M30 24.584L22 24.584 22 22 25 20 27 20 30 22z"></path><path fill="#FFF59D" d="M26 30.063000000000002A2 2 0 1 0 26 34.063A2 2 0 1 0 26 30.063000000000002Z"></path><g><path fill="#90A4AE" d="M31 24L21 24 10 30 10 32 42 32 42 30zM6 6H10V16H6z"></path></g></svg>
