<svg xmlns="http://www.w3.org/2000/svg" viewBox="0 0 48 48"><path fill="#E38939" d="M12,41V8h24v33c0,2.2-1.8,4-4,4H16C13.8,45,12,43.2,12,41"></path><path fill="#FFF3E0" d="M15,6v32c0,0.6,0.4,1,1,1h16c0.6,0,1-0.4,1-1V6H15z"></path><path fill="#A6642A" d="M25.5,42c0,0.8-0.7,1.5-1.5,1.5s-1.5-0.7-1.5-1.5s0.7-1.5,1.5-1.5S25.5,41.2,25.5,42"></path><path fill="#0D47A1" d="M22.9,20.6c-0.6-0.6-0.6-1.6,0-2.2c0.6-0.6,1.6-0.6,2.2,0c0.6,0.6,0.6,1.6,0,2.2C24.4,21.2,23.5,21.2,22.9,20.6"></path><path fill="#1E88E5" d="M17.1,13.8c3.8-3.8,9.9-3.8,13.7,0l0.4,0.4l2.2-2.2l-0.7-0.7l0,0c-4.9-4.5-12.4-4.5-17.2,0l0,0L14.6,12l2.2,2.2L17.1,13.8z"></path><path fill="#1976D2" d="M20.7,17.3c1.8-1.8,4.7-1.8,6.5,0l0.4,0.4l2.2-2.2L29,14.8l0,0c-2.9-2.5-7.2-2.5-10,0l0,0l-0.7,0.7l2.2,2.2L20.7,17.3z"></path><path fill="#64B5F6" d="M13.5,10.4c5.8-5.8,15.1-5.8,20.9,0l0.4,0.4l2.2-2.2l-0.7-0.7l0,0c-6.8-6.5-17.6-6.5-24.4,0l0,0L11,8.6l2.2,2.2L13.5,10.4z"></path></svg>
