<svg xmlns="http://www.w3.org/2000/svg" viewBox="0 0 48 48"><path fill="#616161" d="M41.7,40H6.3C5,40,4,39,4,37.7V10.3C4,9,5,8,6.3,8h35.3C43,8,44,9,44,10.3v27.3C44,39,43,40,41.7,40z"></path><path fill="#E0E0E0" d="M11,16H8c-0.6,0-1-0.4-1-1v-3c0-0.6,0.4-1,1-1h3c0.6,0,1,0.4,1,1v3C12,15.6,11.6,16,11,16z M19,15v-3c0-0.6-0.5-1-1-1h-3c-0.6,0-1,0.4-1,1v3c0,0.6,0.4,1,1,1h3C18.5,16,19,15.6,19,15z M26,15v-3c0-0.6-0.5-1-1-1h-3c-0.5,0-1,0.4-1,1v3c0,0.6,0.5,1,1,1h3C25.5,16,26,15.6,26,15z M12,22v-3c0-0.5-0.4-1-1-1H8c-0.6,0-1,0.5-1,1v3c0,0.5,0.4,1,1,1h3C11.6,23,12,22.5,12,22z M19,22v-3c0-0.5-0.5-1-1-1h-3c-0.6,0-1,0.5-1,1v3c0,0.5,0.4,1,1,1h3C18.5,23,19,22.5,19,22z M26,22v-3c0-0.5-0.5-1-1-1h-3c-0.5,0-1,0.5-1,1v3c0,0.5,0.5,1,1,1h3C25.5,23,26,22.5,26,22z M12,29v-3c0-0.5-0.4-1-1-1H8c-0.6,0-1,0.5-1,1v3c0,0.5,0.4,1,1,1h3C11.6,30,12,29.5,12,29z M19,29v-3c0-0.5-0.5-1-1-1h-3c-0.6,0-1,0.5-1,1v3c0,0.5,0.4,1,1,1h3C18.5,30,19,29.5,19,29z M26,29v-3c0-0.5-0.5-1-1-1h-3c-0.5,0-1,0.5-1,1v3c0,0.5,0.5,1,1,1h3C25.5,30,26,29.5,26,29z M19,36v-3c0-0.5-0.5-1-1-1h-3c-0.6,0-1,0.5-1,1v3c0,0.5,0.4,1,1,1h3C18.5,37,19,36.5,19,36z"></path><path fill="#FF3D00" d="M40,16h-9c-0.5,0-1-0.4-1-1v-3c0-0.6,0.5-1,1-1h9c0.5,0,1,0.4,1,1v3C41,15.6,40.5,16,40,16z"></path><path fill="#FFEB3B" d="M40,23h-9c-0.5,0-1-0.5-1-1v-3c0-0.5,0.5-1,1-1h9c0.5,0,1,0.5,1,1v3C41,22.5,40.5,23,40,23z"></path><path fill="#64DD17" d="M40,30h-9c-0.5,0-1-0.5-1-1v-3c0-0.5,0.5-1,1-1h9c0.5,0,1,0.5,1,1v3C41,29.5,40.5,30,40,30z"></path><path fill="#BDBDBD" d="M11,37H8c-0.6,0-1-0.5-1-1v-3c0-0.5,0.4-1,1-1h3c0.6,0,1,0.5,1,1v3C12,36.5,11.6,37,11,37z M26,36v-3c0-0.5-0.5-1-1-1h-3c-0.5,0-1,0.5-1,1v3c0,0.5,0.5,1,1,1h3C25.5,37,26,36.5,26,36z M41,36v-3c0-0.5-0.5-1-1-1h-9c-0.5,0-1,0.5-1,1v3c0,0.5,0.5,1,1,1h9C40.5,37,41,36.5,41,36z"></path></svg>
