<svg version="1.1" xmlns="http://www.w3.org/2000/svg" xmlns:xlink="http://www.w3.org/1999/xlink" viewBox="0 0 226 226"><g fill="none" fill-rule="nonzero" stroke="none" stroke-width="1" stroke-linecap="butt" stroke-linejoin="miter" stroke-miterlimit="10" stroke-dasharray="" stroke-dashoffset="0" font-family="none" font-weight="none" font-size="none" text-anchor="none" style="mix-blend-mode: normal"><path d="M0,226v-226h226v226z" fill="none"></path><g><path d="M207.16667,113c0,51.79167 -42.375,94.16667 -94.16667,94.16667c-51.79167,0 -94.16667,-42.375 -94.16667,-94.16667c0,-51.79167 42.375,-94.16667 94.16667,-94.16667c51.79167,0 94.16667,42.375 94.16667,94.16667z" fill="#ffca28"></path><path d="M122.41667,127.125h-18.83333v-65.91667h18.83333zM103.58333,155.375c0,-5.17917 4.2375,-9.41667 9.41667,-9.41667c5.17917,0 9.41667,4.2375 9.41667,9.41667c0,5.17917 -4.2375,9.41667 -9.41667,9.41667c-5.17917,0 -9.41667,-4.2375 -9.41667,-9.41667z" fill="#37474f"></path></g></g></svg>